<svg xmlns="http://www.w3.org/2000/svg" width="83" height="61" viewBox="0 0 83 61">
    <path fill="#BD10E0" fill-rule="nonzero" d="M33.21 25.826l11.23 13.008s-2.15 12.195-9.915 17.885C26.759 62.412 0 60.784 0 60.784s.492-2.757 1.424-6.604l12.252-13.364c.514-.56-.112-1.384-.86-1.131l-7.822 2.631c1.87-4.963 4.237-9.536 7.07-11.612 7.765-5.69 21.145-4.878 21.145-4.878zM82.42 3.696L79.85.719c-.711-.822-2.01-.959-2.902-.305L46.845 21.597l-4.42-5.12c-.66-.764-1.96-.62-2.408.263l-3.28 6.5 11.23 13.007 7.615-1.483c1.035-.201 1.478-1.334.82-2.097l-4.414-5.113L82.091 6.37c.892-.652 1.041-1.85.33-2.673z"/>
</svg>
